<?xml version="1.0" encoding="UTF-8"?>
<svg version="1.1" viewBox="0 0 2048 718" width="1280" height="1280" xmlns="http://www.w3.org/2000/svg">
<path transform="translate(215,179)" d="m0 0h126l17 1 19 5 16 8 8 6 8 8 5 9 4 10 3 15v77l-4 13-9 14-9 9v2l9 6 10 9 9 14 3 11 1 7v74l-3 19-5 12-8 11-11 10-17 10-17 7-12 3-9 1h-73l-7-3-5-6-3-7v-17l5-10 10-5 76-1 10-3 4-2 6-12 2-9v-67l-3-10-6-8-5-4-10-4-11-1-9 8-7 4-14 3-11-1-14-7-7-7-5-9-3-10v-9l3-12 5-8 4-5 11-7 6-2 11-1 12 3 9 5 8 7 10-1 9-3 7-8 1-5v-64l-2-8-6-10-9-5-10-2-100-1v57l-1 255-3 6-5 4-11 4-11 1-14-3-8-7-2-5-1-7v-329l2-9 4-6 9-6 4-1z" fill="#00B080"/>
<path transform="translate(1081,177)" d="m0 0h14l6 4 7 8 15 26 17 28 17 29 17 28 10 17 4 6 4-4 9-16 15-25 17-29 16-27 17-29 8-11 7-5h14l11 4 8 6 5 6 2 10-2 9-14 24-17 29-15 25-15 26-29 49 1 5 15 25 34 58 16 27 17 29 5 10v13l-5 8-8 7-12 5-5 1h-7l-6-3-7-7-14-24-17-29-16-27-17-29-15-25h-2l-16 28-26 44-12 20-17 28-9 15-8 7-6 2-10-1-10-4-9-7-6-8-1-4v-7l8-16 15-26 15-25 19-32 15-25 17-29 1-6-15-26-9-15-14-24-34-58-13-22-5-10-1-3v-8l3-6 7-7 12-6z" fill="#00B080"/>
<path transform="translate(1442,179)" d="m0 0h98l18 2 16 6 15 8 12 11 6 8 5 10 4 14 1 11v40l-3 8-5 6-10 4-14 1-12-3-8-7-3-7-1-5-1-35-3-10-6-8-8-4-10-2h-85l-12 3-7 5-6 12-1 5v224l3 10 5 8 4 4 10 3h95l9-3 5-5 5-9 2-7 1-33 3-12 5-5 7-4 4-1h18l9 3 6 5 3 6 1 5v39l-2 15-4 12-7 12-13 13-14 8-13 6-11 3-8 1h-108l-16-3-12-5-16-9-12-11-7-10-4-8-4-17-1-10v-226l2-17 4-12 7-12 9-10 13-9 15-7 14-4z" fill="#00B080"/>
<path transform="translate(533,179)" d="m0 0h131l13 1 16 5 16 8 9 7 10 10 7 12 4 14 2 19v80l-2 20-4 14-8 14-10 10-14 9-15 7-13 3h-76l-8-4-5-8-1-4v-14l3-9 5-5 7-3 58-1 12-3 6-4 6-10 2-6v-90l-4-11-5-7-8-4-10-2h-100l-1 307-3 8-5 6-11 4-12 1-10-2-8-4-5-8-1-5v-334l3-9 5-6 10-5z" fill="#00B080"/>
<path transform="translate(845,179)" d="m0 0h156l9 1 5 3 5 9 1 4v16l-3 7-4 5-5 2h-142v276h147l8 3 4 5 3 9v16l-4 8-5 5-8 2h-175l-10-2-8-5-5-8-2-8v-328l6-12 8-6 3-1z" fill="#00B080"/>
<path transform="translate(1703,177)" d="m0 0h17l9 3 8 7 3 8v338l-3 9-7 6-8 3-11 1-13-2-9-6-4-8-1-8v-327l2-12 7-8z" fill="#00B080"/>
<path transform="translate(1901,177)" d="m0 0h16l9 3 6 4 4 7 1 21v314l-1 12-4 6-5 4-9 3h-20l-10-5-5-6-2-10v-333l3-9 6-7 6-3z" fill="#00B080"/>
<path transform="translate(943,318)" d="m0 0h8l10 2 10 6 6 5 5 7 3 8 1 7v8l-2 10-6 10-7 7-12 6-8 2h-9l-10-3-10-6-8-9-4-8-2-10 1-12 4-11 9-10 9-6 5-2z" fill="#00B080"/>
<path transform="translate(1806,318)" d="m0 0h8l10 2 9 5 8 7 5 8 2 6 1 7v9l-2 9-6 10-8 8-10 5-9 2h-8l-13-4-6-4-9-9-5-11-1-4v-13l2-9 6-10 9-8 7-4z" fill="#00B080"/>
</svg>
